<mxfile host="app.diagrams.net" modified="2024-03-15T17:21:15.037Z" agent="Mozilla/5.0 (Windows NT 10.0; Win64; x64) AppleWebKit/537.36 (KHTML, like Gecko) Chrome/122.0.0.0 Safari/537.36" etag="JFVjvuhnC7pl-FZ_KF1t" version="24.0.6" type="github">
  <diagram name="페이지-1" id="JrYouLSlLBodY8MmeohP">
    <mxGraphModel dx="954" dy="600" grid="1" gridSize="10" guides="1" tooltips="1" connect="1" arrows="1" fold="1" page="1" pageScale="1" pageWidth="827" pageHeight="1169" math="0" shadow="0">
      <root>
        <mxCell id="0" />
        <mxCell id="1" parent="0" />
        <mxCell id="wFtXMStxInyTJkeeVUtt-5" style="edgeStyle=orthogonalEdgeStyle;rounded=0;orthogonalLoop=1;jettySize=auto;html=1;exitX=1;exitY=0.5;exitDx=0;exitDy=0;entryX=0;entryY=0.5;entryDx=0;entryDy=0;" edge="1" parent="1" source="wFtXMStxInyTJkeeVUtt-1" target="wFtXMStxInyTJkeeVUtt-4">
          <mxGeometry relative="1" as="geometry" />
        </mxCell>
        <mxCell id="wFtXMStxInyTJkeeVUtt-1" value="&lt;div&gt;&lt;br&gt;&lt;/div&gt;&lt;div&gt;&lt;br&gt;&lt;/div&gt;&lt;div&gt;&lt;br&gt;&lt;/div&gt;&lt;div&gt;&lt;br&gt;&lt;/div&gt;&lt;div&gt;user&lt;/div&gt;" style="whiteSpace=wrap;html=1;aspect=fixed;" vertex="1" parent="1">
          <mxGeometry x="230" y="240" width="40" height="40" as="geometry" />
        </mxCell>
        <mxCell id="wFtXMStxInyTJkeeVUtt-3" value="&lt;div&gt;&lt;br&gt;&lt;/div&gt;&lt;div&gt;&lt;br&gt;&lt;/div&gt;&lt;div&gt;&lt;br&gt;&lt;/div&gt;&lt;div&gt;&lt;br&gt;&lt;/div&gt;&lt;div&gt;processes&lt;/div&gt;" style="whiteSpace=wrap;html=1;aspect=fixed;" vertex="1" parent="1">
          <mxGeometry x="490" y="240" width="40" height="40" as="geometry" />
        </mxCell>
        <mxCell id="wFtXMStxInyTJkeeVUtt-6" style="edgeStyle=orthogonalEdgeStyle;rounded=0;orthogonalLoop=1;jettySize=auto;html=1;exitX=1;exitY=0.5;exitDx=0;exitDy=0;entryX=0;entryY=0.5;entryDx=0;entryDy=0;" edge="1" parent="1" source="wFtXMStxInyTJkeeVUtt-4" target="wFtXMStxInyTJkeeVUtt-3">
          <mxGeometry relative="1" as="geometry" />
        </mxCell>
        <mxCell id="wFtXMStxInyTJkeeVUtt-4" value="&lt;div&gt;&lt;br&gt;&lt;/div&gt;&lt;div&gt;&lt;br&gt;&lt;/div&gt;&lt;div&gt;&lt;br&gt;&lt;/div&gt;&lt;div&gt;&lt;br&gt;&lt;/div&gt;&lt;div&gt;&lt;br&gt;&lt;/div&gt;&lt;div&gt;&lt;br&gt;&lt;/div&gt;&lt;div&gt;user space software&lt;/div&gt;" style="whiteSpace=wrap;html=1;aspect=fixed;" vertex="1" parent="1">
          <mxGeometry x="360" y="240" width="40" height="40" as="geometry" />
        </mxCell>
        <mxCell id="wFtXMStxInyTJkeeVUtt-7" value="consists of" style="text;html=1;align=center;verticalAlign=middle;whiteSpace=wrap;rounded=0;" vertex="1" parent="1">
          <mxGeometry x="413.5" y="260" width="60" height="30" as="geometry" />
        </mxCell>
      </root>
    </mxGraphModel>
  </diagram>
</mxfile>
